<svg xmlns="http://www.w3.org/2000/svg" viewBox="0 0 24 24" width="24" height="24" fill="none" stroke="currentColor" stroke-width="1.75" stroke-linecap="round" stroke-linejoin="round" role="img" aria-label="eBPF observability">
  <!-- Frame corners -->
  <path d="M3 7V5a2 2 0 0 1 2-2h2"/><path d="M17 3h2a2 2 0 0 1 2 2v2"/>
  <path d="M21 17v2a2 2 0 0 1-2 2h-2"/><path d="M7 21H5a2 2 0 0 1-2-2v-2"/>
  <!-- Telemetry pulse -->
  <path d="M4.5 13h3l1.8-4.5 3 8 2-5.5 1.2 2h4" stroke="#0ea5e9"/>
  <!-- Probe needle -->
  <circle cx="12" cy="6" r="1.3" fill="currentColor" stroke="none"/>
</svg>
